<svg xmlns="http://www.w3.org/2000/svg" viewBox="0 0 384 512" width="24" height="24" fill="white">
  <path d="M318.7 268c-1-82 67-121 70-123.1-38.4-56.2-98-63.9-119.4-64.6-50.6-5.1-98.8 29.8-124.4 29.8-25.6 0-65-29.1-106.9-28.3C17.4 83.6-9.3 125.4.4 168.2c11.3 51.7 41.8 103 75 136.9 25 25.6 52.4 54.3 89.9 53 35.9-1.4 49.5-23 92.8-23 43.2 0 56.3 23 92.3 22.4 38.3-.6 62.6-38.7 73.8-75.8-1.7-.8-66.3-25.5-67.5-101.7zM253.2 61.5C271.5 39.2 284.1 8.8 280 0c-26.6 1-57.2 17.7-75.9 39.8-16.6 19.4-31.2 50.6-27.3 80.4 28.9 2.3 58.4-14.7 76.4-36.7z"/>
</svg>
